<?xml version="1.0" encoding="iso-8859-1"?>
<!-- Generator: Adobe Illustrator 16.0.0, SVG Export Plug-In . SVG Version: 6.00 Build 0)  -->
<!DOCTYPE svg PUBLIC "-//W3C//DTD SVG 1.1//EN" "http://www.w3.org/Graphics/SVG/1.1/DTD/svg11.dtd">
<svg version="1.1" id="Capa_1" xmlns="http://www.w3.org/2000/svg" xmlns:xlink="http://www.w3.org/1999/xlink" x="0px" y="0px"
	 width="569.068px" height="569.068px" viewBox="0 0 569.068 569.068" style="enable-background:new 0 0 569.068 569.068;"
	 xml:space="preserve">
<g>
	<path d="M560.149,346.928v-75.854c0-16.687-7.888-41.028-44.288-64.385c0,0-48.07-104.724-133.616-104.724h-195.41
		c-85.544,0-133.618,104.724-133.618,104.724c-36.403,23.357-44.289,47.698-44.289,64.385v75.854C3.957,347.2,0,351.315,0,356.358
		v48.277c0,4.127,2.668,7.523,6.346,8.812v44.202c0,5.22,4.224,9.454,9.449,9.454h65.079c5.224,0,9.446-4.234,9.446-9.454v-43.759
		c26.753-8.84,53.699-15.235,80.249-19.64h227.951c26.547,4.404,53.479,10.8,80.247,19.64v43.759c0,5.22,4.213,9.454,9.438,9.454
		h65.085c5.215,0,9.44-4.234,9.44-9.454v-44.202c3.678-1.288,6.338-4.692,6.338-8.812v-48.277
		C569.068,351.315,565.113,347.2,560.149,346.928z M142.341,351.211H72.418c-10.539,0-19.123-8.585-19.123-19.109v-19.12
		c0-10.538,8.586-19.118,19.123-19.118c1.105,0,2.205,0.188,3.244,0.573l79.482,28.68c3.801,1.372,6.31,4.961,6.31,8.995
		C161.454,342.626,152.881,351.211,142.341,351.211z M350.007,346.18c0,4.048-3.281,7.324-7.324,7.324H226.406
		c-4.052,0-7.324-3.276-7.324-7.324v-17.093c0-4.05,3.274-7.324,7.324-7.324h116.277c4.056,0,7.324,3.274,7.324,7.324V346.18z
		 M102.966,208.858c19.072-33.251,51.861-75.764,94.847-75.764h173.435c42.984,0,75.788,42.513,94.854,75.764H102.966z
		 M515.785,332.083c0,10.543-8.583,19.126-19.126,19.126h-69.922c-10.545,0-19.123-8.583-19.123-19.126
		c0-4.035,2.531-7.625,6.321-9.006l79.477-28.671c1.06-0.387,2.133-0.573,3.247-0.573c10.546,0,19.126,8.582,19.126,19.118V332.083z
		"/>
</g>
<g>
</g>
<g>
</g>
<g>
</g>
<g>
</g>
<g>
</g>
<g>
</g>
<g>
</g>
<g>
</g>
<g>
</g>
<g>
</g>
<g>
</g>
<g>
</g>
<g>
</g>
<g>
</g>
<g>
</g>
</svg>
