<?xml version="1.0" encoding="iso-8859-1"?>
<!-- Generator: Adobe Illustrator 16.0.0, SVG Export Plug-In . SVG Version: 6.00 Build 0)  -->
<!DOCTYPE svg PUBLIC "-//W3C//DTD SVG 1.1//EN" "http://www.w3.org/Graphics/SVG/1.1/DTD/svg11.dtd">
<svg version="1.1" id="Capa_1" xmlns="http://www.w3.org/2000/svg" xmlns:xlink="http://www.w3.org/1999/xlink" x="0px" y="0px"
	 width="525.664px" height="525.663px" viewBox="0 0 525.664 525.663" style="enable-background:new 0 0 525.664 525.663;"
	 xml:space="preserve">
<g>
	<path d="M53.074,320.717c-18.015,0-32.679,14.662-32.679,32.679c0,18.022,14.665,32.688,32.679,32.688
		c18.032,0,32.689-14.665,32.689-32.688C85.763,335.379,71.106,320.717,53.074,320.717z M53.074,376.08
		c-12.506,0-22.688-10.167-22.688-22.685c0-12.512,10.175-22.688,22.688-22.688c12.516,0,22.7,10.176,22.7,22.688
		C75.773,365.913,65.59,376.08,53.074,376.08z M525.664,267.11v-20.484l-20.445-89.995c0-6.235-9.05-6.235-12.496-6.235H384.716
		c-3.442,0-6.243,0.654-6.243,6.235v163.898c0,16.328,2.801,19.13,6.243,19.13h22.033c6.911-15.213,22.244-25.817,40.019-25.817
		c17.763,0,33.077,10.61,40.001,25.817h32.644c3.449,0,6.251-2.802,6.251-6.248v-31.51h-5.873V267.11H525.664z M426.593,246.503
		h-23.617v-4.796h23.617V246.503z M398.243,234.046V167.05h90.193l10.31,66.996H398.243z M503.041,325.092h-16.742
		c-4.729-9.018-15.039-15.464-15.039-15.464h31.781V325.092z M21.847,303.642h341.646v39.136H182.431
		c-6.14-16.869-22.333-28.936-41.288-28.936c-18.959,0-35.14,12.066-41.282,28.936h-4.046c-6.14-16.869-22.318-28.936-41.277-28.936
		c-18.677,0-34.658,11.721-41,28.186C5.722,339.779,0,332.584,0,324.036v-1.663c0-4.235,1.457-8.082,3.814-11.219v-15.282
		L3.637,139.58h354.409l-0.357,156.302H21.847V303.642z M445.302,320.717c-18.021,0-32.687,14.662-32.687,32.679
		c0,18.022,14.665,32.688,32.687,32.688c18.022,0,32.685-14.665,32.685-32.688C477.987,335.379,463.325,320.717,445.302,320.717z
		 M445.302,376.08c-12.512,0-22.688-10.167-22.688-22.685c0-12.512,10.165-22.688,22.688-22.688
		c12.518,0,22.697,10.176,22.697,22.688C468,365.913,457.811,376.08,445.302,376.08z M139.679,320.717
		c-18.02,0-32.686,14.662-32.686,32.679c0,18.022,14.666,32.688,32.686,32.688c18.026,0,32.684-14.665,32.684-32.688
		C172.363,335.379,157.706,320.717,139.679,320.717z M139.679,376.08c-12.506,0-22.693-10.167-22.693-22.685
		c0-12.512,10.181-22.688,22.693-22.688c12.511,0,22.694,10.176,22.694,22.688C162.374,365.913,152.19,376.08,139.679,376.08z"/>
</g>
<g>
</g>
<g>
</g>
<g>
</g>
<g>
</g>
<g>
</g>
<g>
</g>
<g>
</g>
<g>
</g>
<g>
</g>
<g>
</g>
<g>
</g>
<g>
</g>
<g>
</g>
<g>
</g>
<g>
</g>
</svg>
