<svg id="solid" xmlns="http://www.w3.org/2000/svg" viewBox="0 0 512 512" width="512" height="512"><g><path d="M305.328,264.734l18.142,27.49a96.566,96.566,0,0,0,17.548-23.675L319,235.183A63.77,63.77,0,0,1,305.328,264.734Z"/><path d="M278.25,317.392a95.58,95.58,0,0,0,32.868-14.836l-14.48-21.941Z"/><path d="M348.279,250.5A95.743,95.743,0,0,0,352,224c0-2.851-.132-5.672-.377-8.461l-25.422,1.5Z"/><path d="M245.393,287.1,230.648,316.6A95.769,95.769,0,0,0,256,320c1.033,0,2.059-.022,3.084-.055L276.8,284.511a63.581,63.581,0,0,1-31.409,2.593Z"/><path d="M215.536,311.042,227.308,287.5l-40.992,2.461A96.466,96.466,0,0,0,215.536,311.042Z"/><path d="M315.953,201.616l32.922-1.943a95.481,95.481,0,0,0-11.291-26.214l-39.574,2.319A64.239,64.239,0,0,1,315.953,201.616Z"/><circle cx="256.001" cy="224" r="16"/><path d="M304,224a48,48,0,1,0-48,48A48.054,48.054,0,0,0,304,224Zm-80,0a32,32,0,1,1,32,32A32.036,32.036,0,0,1,224,224Z"/><path d="M445.651,394.5l-15.5,18.616a8,8,0,0,1-12.294-10.24l18.879-22.667A39.872,39.872,0,0,0,408,368H395.747l-37.6,45.122a8,8,0,0,1-12.292-10.244L374.919,368H331.747l-37.6,45.122a8,8,0,0,1-12.292-10.244L310.919,368H267.747l-37.6,45.122a8,8,0,0,1-12.292-10.244L246.919,368H203.747l-37.6,45.122a8,8,0,0,1-12.292-10.244L182.919,368H131.747l-37.6,45.122a8,8,0,0,1-12.292-10.244L110.919,368H104a40.045,40.045,0,0,0-40,40v32a40.045,40.045,0,0,0,40,40h6.92L81.854,445.122a8,8,0,0,1,12.292-10.243L131.747,480H182.92l-29.066-34.878a8,8,0,0,1,12.292-10.243L203.747,480H246.92l-29.066-34.878a8,8,0,0,1,12.292-10.243L267.747,480H310.92l-29.066-34.878a8,8,0,0,1,12.292-10.243L331.747,480H374.92l-29.066-34.878a8,8,0,0,1,12.292-10.243L395.747,480H408a39.872,39.872,0,0,0,28.732-12.213L417.853,445.12a8,8,0,0,1,12.294-10.24l15.5,18.616A39.8,39.8,0,0,0,448,440V408A39.8,39.8,0,0,0,445.651,394.5Z"/><path d="M214.044,272.266a64.231,64.231,0,0,1-18-25.9l-32.911,1.975a95.466,95.466,0,0,0,11.349,26.3Z"/><path d="M96,248a7.967,7.967,0,0,1-4.99-1.75L64.032,224.692a193.315,193.315,0,0,0,8.089,54.742l44.428,12.882a8,8,0,1,1-4.456,15.368l-33.3-9.656a190.691,190.691,0,0,0,31.357,50.762c.052.06.1.122.153.184.872,1.079,1.726,2.08,2.577,3.026h286.19a192.1,192.1,0,0,0,26.151-37.286l-22.3-40.365a8,8,0,0,1,14-7.738L433.661,296.9a190.309,190.309,0,0,0,13.428-53.816L411.007,214.25A8,8,0,0,1,421,201.75l26.972,21.556a193.344,193.344,0,0,0-8.089-54.741l-44.426-12.881a8,8,0,0,1,4.456-15.368l33.3,9.655a190.4,190.4,0,0,0-28.668-47.55l-45.82,5.051a8,8,0,0,1-1.753-15.9l34.322-3.783a189.561,189.561,0,0,0-44.544-33.021L306.351,77.083a8,8,0,0,1-7.739-14l30.3-16.742A189.719,189.719,0,0,0,275.04,32.972L246.251,69a8,8,0,1,1-12.5-9.99l21.557-26.974a193.234,193.234,0,0,0-54.743,8.09L187.685,84.548a8,8,0,0,1-15.367-4.456l9.655-33.3a190.416,190.416,0,0,0-47.551,28.668l5.051,45.823a8,8,0,1,1-15.9,1.753l-3.784-34.325a189.539,189.539,0,0,0-33.021,44.545l22.318,40.394a8,8,0,1,1-14,7.738L78.341,151.1a190.3,190.3,0,0,0-13.43,53.816L101,233.75A8,8,0,0,1,96,248ZM256,112a111.949,111.949,0,0,1,92.014,48.224,7.887,7.887,0,0,1,.615.885,111.813,111.813,0,0,1,9.043,109.837,7.894,7.894,0,0,1-.423.9,112.669,112.669,0,0,1-29.977,38.483,7.943,7.943,0,0,1-.643.521,111.842,111.842,0,0,1-162.66-23.1c-.143-.187-.277-.382-.4-.582A111.942,111.942,0,0,1,256,112Z"/><path d="M164,196.575A95.672,95.672,0,0,0,160,224c0,2.857.133,5.683.379,8.477l26.283-1.577Z"/><path d="M234.718,130.382a95.547,95.547,0,0,0-33.266,14.669l14.756,22.35Z"/><path d="M266.61,160.9l14.745-29.491A95.771,95.771,0,0,0,256,128c-.741,0-1.48.011-2.218.028l-17.556,35.113A63.62,63.62,0,0,1,266.61,160.9Z"/><path d="M207.149,182.719l-18.113-27.434a96.6,96.6,0,0,0-17.659,23.425l21.814,33.039A63.8,63.8,0,0,1,207.149,182.719Z"/><path d="M296.466,136.958,284.68,160.532l41.085-2.408A96.464,96.464,0,0,0,296.466,136.958Z"/></g></svg>
