<svg aria-hidden="true" style="position: absolute; width: 0; height: 0; overflow: hidden;" version="1.1" xmlns="http://www.w3.org/2000/svg" xmlns:xlink="http://www.w3.org/1999/xlink">
    <defs>  
        <symbol id="icon-toggle-on" viewBox="0 0 32 28">
            <path d="M0 14c0-5.516 4.484-10 10-10h12c5.516 0 10 4.484 10 10s-4.484 10-10 10h-12c-5.516 0-10-4.484-10-10zM22 22c4.406 0 8-3.594 8-8s-3.594-8-8-8-8 3.594-8 8 3.594 8 8 8z"></path>
        </symbol>

        <symbol id="icon-toggle-off" viewBox="0 0 32 28">
            <path d="M18 14c0-4.406-3.594-8-8-8s-8 3.594-8 8 3.594 8 8 8 8-3.594 8-8zM30 14c0-4.406-3.594-8-8-8h-6.031c2.438 1.828 4.031 4.734 4.031 8s-1.594 6.172-4.031 8h6.031c4.406 0 8-3.594 8-8zM32 14c0 5.516-4.484 10-10 10h-12c-5.516 0-10-4.484-10-10s4.484-10 10-10h12c5.516 0 10 4.484 10 10z"></path>
        </symbol>

        <symbol id="icon-automobile" viewBox="0 0 32 28">
            <path d="M7.5 17c0-1.375-1.125-2.5-2.5-2.5s-2.5 1.125-2.5 2.5 1.125 2.5 2.5 2.5 2.5-1.125 2.5-2.5zM8.062 12h15.875l-1.391-5.578c-0.047-0.172-0.359-0.422-0.547-0.422h-12c-0.187 0-0.5 0.25-0.547 0.422zM29.5 17c0-1.375-1.125-2.5-2.5-2.5s-2.5 1.125-2.5 2.5 1.125 2.5 2.5 2.5 2.5-1.125 2.5-2.5zM32 15.5v6c0 0.281-0.219 0.5-0.5 0.5h-1.5v2c0 1.656-1.344 3-3 3s-3-1.344-3-3v-2h-16v2c0 1.656-1.344 3-3 3s-3-1.344-3-3v-2h-1.5c-0.281 0-0.5-0.219-0.5-0.5v-6c0-1.937 1.563-3.5 3.5-3.5h0.438l1.641-6.547c0.484-1.969 2.391-3.453 4.422-3.453h12c2.031 0 3.938 1.484 4.422 3.453l1.641 6.547h0.438c1.937 0 3.5 1.563 3.5 3.5z"></path>
        </symbol>

        <symbol id="icon-snowflake-o" viewBox="0 0 26 28">
            <path d="M24.469 17.453l-2.609 0.516 2.906 1.672c0.469 0.266 0.641 0.891 0.359 1.359s-0.891 0.641-1.359 0.359l-2.906-1.656 0.859 2.5c0.438 1.25-1.469 1.891-1.891 0.656l-1.594-4.688-4.234-2.438v4.891l3.25 3.719c0.875 0.984-0.641 2.312-1.5 1.313l-1.75-2v3.344c0 0.547-0.453 1-1 1s-1-0.453-1-1v-3.344l-1.75 2c-0.859 1-2.375-0.328-1.5-1.313l3.25-3.719v-4.891l-4.234 2.438-1.594 4.688c-0.422 1.234-2.328 0.594-1.891-0.656l0.859-2.5-2.906 1.656c-0.469 0.281-1.078 0.109-1.359-0.359s-0.109-1.094 0.359-1.359l2.906-1.672-2.609-0.516c-1.297-0.266-0.906-2.219 0.391-1.969l4.844 0.969 4.234-2.453-4.234-2.453-4.844 0.969c-0.063 0.016-0.141 0.016-0.203 0.016-1.188 0-1.359-1.75-0.187-1.984l2.609-0.516-2.906-1.672c-0.469-0.266-0.641-0.891-0.359-1.359 0.281-0.484 0.891-0.641 1.359-0.359l2.906 1.656-0.859-2.5c-0.438-1.25 1.469-1.891 1.891-0.656l1.594 4.688 4.234 2.438v-4.891l-3.25-3.719c-0.875-0.984 0.641-2.312 1.5-1.313l1.75 2v-3.344c0-0.547 0.453-1 1-1s1 0.453 1 1v3.344l1.75-2c0.859-1 2.375 0.328 1.5 1.313l-3.25 3.719v4.891l4.234-2.438 1.594-4.688c0.422-1.234 2.328-0.594 1.891 0.656l-0.859 2.5 2.906-1.656c0.469-0.281 1.078-0.109 1.359 0.359s0.109 1.094-0.359 1.359l-2.906 1.672 2.609 0.516c1.172 0.234 1 1.984-0.187 1.984-0.063 0-0.141 0-0.203-0.016l-4.844-0.969-4.234 2.453 4.234 2.453 4.844-0.969c1.297-0.25 1.687 1.703 0.391 1.969z"></path>
        </symbol>

        <symbol id="icon-switch" viewBox="0 0 20 18">
            <path d="M13 2h-6c-3.866 0-7 3.134-7 7s3.134 7 7 7h6c3.866 0 7-3.134 7-7s-3.134-7-7-7zM13 14h-6c-2.757 0-5-2.243-5-5s2.243-5 5-5h6c2.757 0 5 2.243 5 5s-2.243 5-5 5z"></path><path d="M10 9c0 1.657-1.343 3-3 3s-3-1.343-3-3 1.343-3 3-3 3 1.343 3 3z"></path>
        </symbol>

        <symbol id="icon-bug" viewBox="0 0 20 20">
            <path d="M15.3 14.89l2.77 2.77c0.18 0.181 0.291 0.43 0.291 0.705s-0.111 0.524-0.291 0.705l0-0c-0.181 0.18-0.43 0.291-0.705 0.291s-0.524-0.111-0.705-0.291l0 0-2.59-2.58c-0.825 0.765-1.872 1.303-3.034 1.505l-0.036 0.005v-8.96c0-0.552-0.448-1-1-1s-1 0.448-1 1v0 8.96c-1.198-0.207-2.245-0.744-3.074-1.513l0.004 0.003-2.59 2.58c-0.181 0.18-0.43 0.291-0.705 0.291s-0.524-0.111-0.705-0.291l0 0c-0.18-0.181-0.291-0.43-0.291-0.705s0.111-0.524 0.291-0.705l2.77-2.77c-0.298-0.547-0.518-1.183-0.626-1.856l-0.004-0.034h-3.070c-0.552 0-1-0.448-1-1s0.448-1 1-1v0h3v-2.59l-3.070-3.070c-0.18-0.181-0.291-0.43-0.291-0.705s0.111-0.524 0.291-0.705l-0 0c0.181-0.18 0.43-0.291 0.705-0.291s0.524 0.111 0.705 0.291l2.1 2.1h11.12l2.1-2.1c0.181-0.18 0.43-0.291 0.705-0.291s0.524 0.111 0.705 0.291l-0-0c0.18 0.181 0.291 0.43 0.291 0.705s-0.111 0.524-0.291 0.705l-3.070 3.070v2.59h3c0.552 0 1 0.448 1 1s-0.448 1-1 1v0h-3.070c-0.1 0.67-0.32 1.31-0.63 1.89zM15 5h-10c0-2.761 2.239-5 5-5s5 2.239 5 5v0z"></path>
        </symbol>

        <symbol id="icon-home" viewBox="0 0 20 20">
            <path d="M8 20h-5v-10h-3l10-10 10 10h-3v10h-5v-6h-4v6z"></path>
        </symbol>

        <symbol id="icon-timer" viewBox="0 0 20 20">
            <path d="M16.32 7.1c1.044 1.339 1.675 3.045 1.675 4.898 0 4.418-3.582 8-8 8s-8-3.582-8-8c0-4.068 3.036-7.426 6.965-7.934l0.040-0.004v-2.060h2v2.060c1.46 0.18 2.8 0.76 3.9 1.62l1.46-1.46 1.42 1.42-1.46 1.45zM10 18c3.314 0 6-2.686 6-6s-2.686-6-6-6v0c-3.314 0-6 2.686-6 6s2.686 6 6 6v0zM7 0h6v2h-6v-2zM12.12 8.46l1.42 1.42-3.54 3.52-1.41-1.4 3.53-3.54z"></path>
        </symbol>

        <symbol id="icon-tools" viewBox="0 0 20 20">
            <path d="M3.135 6.89c0.933-0.725 1.707-0.225 2.74 0.971 0.116 0.135 0.272-0.023 0.361-0.1 0.088-0.078 1.451-1.305 1.518-1.361 0.066-0.059 0.146-0.169 0.041-0.292-0.107-0.123-0.494-0.625-0.743-0.951-1.808-2.365 4.946-3.969 3.909-3.994-0.528-0.014-2.646-0.039-2.963-0.004-1.283 0.135-2.894 1.334-3.705 1.893-1.061 0.726-1.457 1.152-1.522 1.211-0.3 0.262-0.048 0.867-0.592 1.344-0.575 0.503-0.934 0.122-1.267 0.414-0.165 0.146-0.627 0.492-0.759 0.607-0.133 0.117-0.157 0.314-0.021 0.471 0 0 1.264 1.396 1.37 1.52 0.105 0.122 0.391 0.228 0.567 0.071 0.177-0.156 0.632-0.553 0.708-0.623 0.078-0.066-0.050-0.861 0.358-1.177zM8.843 7.407c-0.12-0.139-0.269-0.143-0.397-0.029l-1.434 1.252c-0.113 0.1-0.129 0.283-0.027 0.4l8.294 9.439c0.194 0.223 0.53 0.246 0.751 0.053l0.97-0.813c0.222-0.195 0.245-0.533 0.052-0.758l-8.209-9.544zM19.902 3.39c-0.074-0.494-0.33-0.391-0.463-0.182-0.133 0.211-0.721 1.102-0.963 1.506-0.24 0.4-0.832 1.191-1.934 0.41-1.148-0.811-0.749-1.377-0.549-1.758 0.201-0.383 0.818-1.457 0.907-1.59 0.089-0.135-0.015-0.527-0.371-0.363s-2.523 1.025-2.823 2.26c-0.307 1.256 0.257 2.379-0.85 3.494l-1.343 1.4 1.349 1.566 1.654-1.57c0.394-0.396 1.236-0.781 1.998-0.607 1.633 0.369 2.524-0.244 3.061-1.258 0.482-0.906 0.402-2.814 0.327-3.308zM2.739 17.053c-0.208 0.209-0.208 0.549 0 0.758l0.951 0.93c0.208 0.209 0.538 0.121 0.746-0.088l4.907-4.824-1.503-1.714-5.101 4.938z"></path>
        </symbol>

        <symbol id="icon-alert-octagon" viewBox="0 0 24 24">
            <path d="M7.86 1c-0.256 0-0.512 0.098-0.707 0.293l-5.86 5.86c-0.181 0.181-0.293 0.431-0.293 0.707v8.28c0 0.256 0.098 0.512 0.293 0.707l5.86 5.86c0.181 0.181 0.431 0.293 0.707 0.293h8.28c0.256 0 0.512-0.098 0.707-0.293l5.86-5.86c0.181-0.181 0.293-0.431 0.293-0.707v-8.28c0-0.256-0.098-0.512-0.293-0.707l-5.86-5.86c-0.181-0.181-0.431-0.293-0.707-0.293zM8.274 3h7.452l5.274 5.274v7.452l-5.274 5.274h-7.452l-5.274-5.274v-7.452zM11 8v4c0 0.552 0.448 1 1 1s1-0.448 1-1v-4c0-0.552-0.448-1-1-1s-1 0.448-1 1zM12 17c0.552 0 1-0.448 1-1s-0.448-1-1-1-1 0.448-1 1 0.448 1 1 1z"></path>
        </symbol>

        <symbol id="icon-alert-triangle" viewBox="0 0 24 24">
            <path d="M11.148 4.374c0.073-0.123 0.185-0.242 0.334-0.332 0.236-0.143 0.506-0.178 0.756-0.116s0.474 0.216 0.614 0.448l8.466 14.133c0.070 0.12 0.119 0.268 0.128 0.434-0.015 0.368-0.119 0.591-0.283 0.759-0.18 0.184-0.427 0.298-0.693 0.301l-16.937-0.001c-0.152-0.001-0.321-0.041-0.481-0.134-0.239-0.138-0.399-0.359-0.466-0.607s-0.038-0.519 0.092-0.745zM9.432 3.346l-8.47 14.14c-0.422 0.731-0.506 1.55-0.308 2.29s0.68 1.408 1.398 1.822c0.464 0.268 0.976 0.4 1.475 0.402h16.943c0.839-0.009 1.587-0.354 2.123-0.902s0.864-1.303 0.855-2.131c-0.006-0.536-0.153-1.044-0.406-1.474l-8.474-14.147c-0.432-0.713-1.11-1.181-1.854-1.363s-1.561-0.081-2.269 0.349c-0.429 0.26-0.775 0.615-1.012 1.014zM11 9v4c0 0.552 0.448 1 1 1s1-0.448 1-1v-4c0-0.552-0.448-1-1-1s-1 0.448-1 1zM12 18c0.552 0 1-0.448 1-1s-0.448-1-1-1-1 0.448-1 1 0.448 1 1 1z"></path>
        </symbol>

        <symbol id="icon-check" viewBox="0 0 24 24">
            <path d="M19.293 5.293l-10.293 10.293-4.293-4.293c-0.391-0.391-1.024-0.391-1.414 0s-0.391 1.024 0 1.414l5 5c0.391 0.391 1.024 0.391 1.414 0l11-11c0.391-0.391 0.391-1.024 0-1.414s-1.024-0.391-1.414 0z"></path>
        </symbol>

        <symbol id="icon-chevron-down" viewBox="0 0 24 24">
            <path d="M5.293 9.707l6 6c0.391 0.391 1.024 0.391 1.414 0l6-6c0.391-0.391 0.391-1.024 0-1.414s-1.024-0.391-1.414 0l-5.293 5.293-5.293-5.293c-0.391-0.391-1.024-0.391-1.414 0s-0.391 1.024 0 1.414z"></path>
        </symbol>

        <symbol id="icon-chevron-left" viewBox="0 0 24 24">
            <path d="M15.707 17.293l-5.293-5.293 5.293-5.293c0.391-0.391 0.391-1.024 0-1.414s-1.024-0.391-1.414 0l-6 6c-0.391 0.391-0.391 1.024 0 1.414l6 6c0.391 0.391 1.024 0.391 1.414 0s0.391-1.024 0-1.414z"></path>
        </symbol>

        <symbol id="icon-chevron-right" viewBox="0 0 24 24">
            <path d="M9.707 18.707l6-6c0.391-0.391 0.391-1.024 0-1.414l-6-6c-0.391-0.391-1.024-0.391-1.414 0s-0.391 1.024 0 1.414l5.293 5.293-5.293 5.293c-0.391 0.391-0.391 1.024 0 1.414s1.024 0.391 1.414 0z"></path>
        </symbol>

        <symbol id="icon-chevron-up" viewBox="0 0 24 24">
            <path d="M18.707 14.293l-6-6c-0.391-0.391-1.024-0.391-1.414 0l-6 6c-0.391 0.391-0.391 1.024 0 1.414s1.024 0.391 1.414 0l5.293-5.293 5.293 5.293c0.391 0.391 1.024 0.391 1.414 0s0.391-1.024 0-1.414z"></path>
        </symbol>

        <symbol id="icon-dollar-sign" viewBox="0 0 24 24">
            <path d="M11 11h-1.5c-0.691 0-1.314-0.279-1.768-0.732s-0.732-1.077-0.732-1.768 0.279-1.314 0.732-1.768 1.077-0.732 1.768-0.732h1.5zM13 13h1.5c0.691 0 1.314 0.279 1.768 0.732s0.732 1.077 0.732 1.768-0.279 1.314-0.732 1.768-1.077 0.732-1.768 0.732h-1.5zM17 4h-4v-3c0-0.552-0.448-1-1-1s-1 0.448-1 1v3h-1.5c-1.242 0-2.369 0.505-3.182 1.318s-1.318 1.94-1.318 3.182 0.505 2.369 1.318 3.182 1.94 1.318 3.182 1.318h1.5v5h-5c-0.552 0-1 0.448-1 1s0.448 1 1 1h5v3c0 0.552 0.448 1 1 1s1-0.448 1-1v-3h1.5c1.242 0 2.369-0.505 3.182-1.318s1.318-1.94 1.318-3.182-0.505-2.369-1.318-3.182-1.94-1.318-3.182-1.318h-1.5v-5h4c0.552 0 1-0.448 1-1s-0.448-1-1-1z"></path>
        </symbol>

        <symbol id="icon-heart" viewBox="0 0 24 24">
            <path d="M20.133 5.317c0.88 0.881 1.319 2.031 1.319 3.184s-0.44 2.303-1.319 3.182l-8.133 8.133-8.133-8.133c-0.879-0.879-1.318-2.029-1.318-3.183s0.439-2.304 1.318-3.183 2.029-1.318 3.183-1.318 2.304 0.439 3.183 1.318l1.060 1.060c0.391 0.391 1.024 0.391 1.414 0l1.062-1.062c0.879-0.879 2.029-1.318 3.182-1.317s2.303 0.44 3.182 1.319zM21.547 3.903c-1.269-1.269-2.934-1.904-4.596-1.905s-3.327 0.634-4.597 1.903l-0.354 0.355-0.353-0.353c-1.269-1.269-2.935-1.904-4.597-1.904s-3.328 0.635-4.597 1.904-1.904 2.935-1.904 4.597 0.635 3.328 1.904 4.597l8.84 8.84c0.391 0.391 1.024 0.391 1.414 0l8.84-8.84c1.269-1.269 1.904-2.934 1.905-4.596s-0.634-3.327-1.905-4.598z"></path>
        </symbol>

        <symbol id="icon-mail" viewBox="0 0 24 24">
            <path d="M3 7.921l8.427 5.899c0.34 0.235 0.795 0.246 1.147 0l8.426-5.899v10.079c0 0.272-0.11 0.521-0.295 0.705s-0.433 0.295-0.705 0.295h-16c-0.272 0-0.521-0.11-0.705-0.295s-0.295-0.433-0.295-0.705zM1 5.983c0 0.010 0 0.020 0 0.030v11.987c0 0.828 0.34 1.579 0.88 2.12s1.292 0.88 2.12 0.88h16c0.828 0 1.579-0.34 2.12-0.88s0.88-1.292 0.88-2.12v-11.988c0-0.010 0-0.020 0-0.030-0.005-0.821-0.343-1.565-0.88-2.102-0.541-0.54-1.292-0.88-2.12-0.88h-16c-0.828 0-1.579 0.34-2.12 0.88-0.537 0.537-0.875 1.281-0.88 2.103zM20.894 5.554l-8.894 6.225-8.894-6.225c0.048-0.096 0.112-0.183 0.188-0.259 0.185-0.185 0.434-0.295 0.706-0.295h16c0.272 0 0.521 0.11 0.705 0.295 0.076 0.076 0.14 0.164 0.188 0.259z"></path>
        </symbol>

        <symbol id="icon-map-pin" viewBox="0 0 24 24">
            <path d="M22 10c0-2.761-1.12-5.263-2.929-7.071s-4.31-2.929-7.071-2.929-5.263 1.12-7.071 2.929-2.929 4.31-2.929 7.071c0 0.569 0.053 1.128 0.15 1.676 0.274 1.548 0.899 3.004 1.682 4.32 2.732 4.591 7.613 7.836 7.613 7.836 0.331 0.217 0.765 0.229 1.109 0 0 0 4.882-3.245 7.613-7.836 0.783-1.316 1.408-2.772 1.682-4.32 0.098-0.548 0.151-1.107 0.151-1.676zM20 10c0 0.444-0.041 0.887-0.119 1.328-0.221 1.25-0.737 2.478-1.432 3.646-1.912 3.214-5.036 5.747-6.369 6.74-1.398-0.916-4.588-3.477-6.53-6.74-0.695-1.168-1.211-2.396-1.432-3.646-0.077-0.441-0.118-0.884-0.118-1.328 0-2.209 0.894-4.208 2.343-5.657s3.448-2.343 5.657-2.343 4.208 0.894 5.657 2.343 2.343 3.448 2.343 5.657zM16 10c0-1.104-0.449-2.106-1.172-2.828s-1.724-1.172-2.828-1.172-2.106 0.449-2.828 1.172-1.172 1.724-1.172 2.828 0.449 2.106 1.172 2.828 1.724 1.172 2.828 1.172 2.106-0.449 2.828-1.172 1.172-1.724 1.172-2.828zM14 10c0 0.553-0.223 1.051-0.586 1.414s-0.861 0.586-1.414 0.586-1.051-0.223-1.414-0.586-0.586-0.861-0.586-1.414 0.223-1.051 0.586-1.414 0.861-0.586 1.414-0.586 1.051 0.223 1.414 0.586 0.586 0.861 0.586 1.414z"></path>
        </symbol>

        <symbol id="icon-shield" viewBox="0 0 24 24">
            <path d="M12 20.862c-1.184-0.672-4.42-2.695-6.050-5.549-0.079-0.138-0.153-0.276-0.223-0.417-0.456-0.911-0.727-1.878-0.727-2.896v-6.307l7-2.625 7 2.625v6.307c0 1.018-0.271 1.985-0.726 2.897-0.070 0.14-0.145 0.279-0.223 0.417-1.631 2.854-4.867 4.876-6.050 5.549zM12.447 22.894c0 0 4.989-2.475 7.34-6.589 0.096-0.168 0.188-0.34 0.276-0.515 0.568-1.135 0.937-2.408 0.937-3.79v-7c0-0.426-0.267-0.79-0.649-0.936l-8-3c-0.236-0.089-0.485-0.082-0.702 0l-8 3c-0.399 0.149-0.646 0.527-0.649 0.936v7c0 1.382 0.369 2.655 0.938 3.791 0.087 0.175 0.179 0.346 0.276 0.515 2.351 4.114 7.34 6.589 7.34 6.589 0.292 0.146 0.62 0.136 0.894 0z"></path>
        </symbol>

        <symbol id="icon-truck" viewBox="0 0 24 24">
            <path d="M15 15h-13v-11h13v4zM17 9h2.586l2.414 2.414v3.586h-5zM7 18.5c0 0.414-0.167 0.788-0.439 1.061s-0.647 0.439-1.061 0.439-0.788-0.167-1.061-0.439-0.439-0.647-0.439-1.061 0.167-0.788 0.439-1.061 0.647-0.439 1.061-0.439 0.788 0.167 1.061 0.439 0.439 0.647 0.439 1.061zM22 18.5c0-0.537-0.121-1.045-0.337-1.5h1.337c0.552 0 1-0.448 1-1v-5c0-0.256-0.098-0.512-0.293-0.707l-3-3c-0.181-0.181-0.431-0.293-0.707-0.293h-3v-4c0-0.552-0.448-1-1-1h-15c-0.552 0-1 0.448-1 1v13c0 0.552 0.448 1 1 1h1.337c-0.216 0.455-0.337 0.963-0.337 1.5 0 0.966 0.393 1.843 1.025 2.475s1.509 1.025 2.475 1.025 1.843-0.393 2.475-1.025 1.025-1.509 1.025-2.475c0-0.537-0.121-1.045-0.337-1.5h6.674c-0.216 0.455-0.337 0.963-0.337 1.5 0 0.966 0.393 1.843 1.025 2.475s1.509 1.025 2.475 1.025 1.843-0.393 2.475-1.025 1.025-1.509 1.025-2.475zM20 18.5c0 0.414-0.167 0.788-0.439 1.061s-0.647 0.439-1.061 0.439-0.788-0.167-1.061-0.439-0.439-0.647-0.439-1.061 0.167-0.788 0.439-1.061 0.647-0.439 1.061-0.439 0.788 0.167 1.061 0.439 0.439 0.647 0.439 1.061z"></path>
        </symbol>

        <symbol id="icon-watch" viewBox="0 0 24 24">
            <path d="M11 9v3c0 0.276 0.112 0.526 0.293 0.707l1.5 1.5c0.391 0.391 1.024 0.391 1.414 0s0.391-1.024 0-1.414l-1.207-1.207v-2.586c0-0.552-0.448-1-1-1s-1 0.448-1 1zM15.33 19.276l-0.166 1.813c-0.024 0.266-0.147 0.495-0.333 0.658-0.18 0.159-0.415 0.253-0.67 0.253h-4.331c-0.27 0.001-0.509-0.1-0.69-0.269-0.175-0.164-0.291-0.389-0.315-0.643l-0.165-1.817c1.016 0.468 2.148 0.729 3.34 0.729 1.188 0 2.316-0.259 3.33-0.724zM8.187 7.367c1.037-0.855 2.364-1.367 3.813-1.367 1.657 0 3.156 0.67 4.243 1.757s1.757 2.586 1.757 4.243-0.67 3.156-1.757 4.243c-0.104 0.104-0.211 0.204-0.323 0.3-0.035 0.031-0.071 0.061-0.107 0.090-1.037 0.855-2.364 1.367-3.813 1.367-1.657 0-3.156-0.67-4.243-1.757s-1.757-2.586-1.757-4.243 0.67-3.156 1.757-4.243c0.104-0.104 0.211-0.204 0.323-0.3 0.035-0.031 0.071-0.061 0.107-0.090zM17.491 6.182l-0.315-3.455c-0.070-0.756-0.418-1.43-0.938-1.917-0.539-0.505-1.266-0.813-2.058-0.81h-4.354c-0.755 0.003-1.454 0.286-1.985 0.757-0.551 0.488-0.925 1.182-0.997 1.972l-0.314 3.433c-0.063 0.059-0.126 0.12-0.187 0.181-1.446 1.447-2.343 3.448-2.343 5.657s0.897 4.21 2.343 5.657c0.058 0.058 0.117 0.115 0.176 0.171l0.315 3.445c0.070 0.756 0.418 1.43 0.938 1.917 0.539 0.505 1.266 0.813 2.058 0.81h4.329c0.759 0.001 1.463-0.282 1.997-0.754 0.553-0.489 0.929-1.184 1-1.975l0.314-3.433c0.063-0.059 0.126-0.12 0.187-0.181 1.446-1.447 2.343-3.448 2.343-5.657s-0.897-4.21-2.343-5.657c-0.054-0.054-0.11-0.108-0.165-0.161zM8.67 4.724l0.166-1.813c0.024-0.265 0.147-0.494 0.331-0.657 0.179-0.159 0.412-0.253 0.667-0.254h4.346c0.27-0.001 0.509 0.1 0.69 0.269 0.175 0.164 0.291 0.389 0.315 0.643l0.166 1.821c-1.020-0.47-2.155-0.733-3.351-0.733-1.188 0-2.316 0.259-3.33 0.724z"></path>
        </symbol>

        <symbol id="icon-x" viewBox="0 0 24 24">
            <path d="M5.293 6.707l5.293 5.293-5.293 5.293c-0.391 0.391-0.391 1.024 0 1.414s1.024 0.391 1.414 0l5.293-5.293 5.293 5.293c0.391 0.391 1.024 0.391 1.414 0s0.391-1.024 0-1.414l-5.293-5.293 5.293-5.293c0.391-0.391 0.391-1.024 0-1.414s-1.024-0.391-1.414 0l-5.293 5.293-5.293-5.293c-0.391-0.391-1.024-0.391-1.414 0s-0.391 1.024 0 1.414z"></path>
        </symbol>

        <symbol id="icon-phone" viewBox="0 0 32 32">
            <path d="M22 20c-2 2-2 4-4 4s-4-2-6-4-4-4-4-6 2-2 4-4-4-8-6-8-6 6-6 6c0 4 4.109 12.109 8 16s12 8 16 8c0 0 6-4 6-6s-6-8-8-6z"></path>
        </symbol>

        <symbol id="icon-wrench" viewBox="0 0 32 32">
            <path d="M31.342 25.559l-14.392-12.336c0.67-1.259 1.051-2.696 1.051-4.222 0-4.971-4.029-9-9-9-0.909 0-1.787 0.135-2.614 0.386l5.2 5.2c0.778 0.778 0.778 2.051 0 2.828l-3.172 3.172c-0.778 0.778-2.051 0.778-2.828 0l-5.2-5.2c-0.251 0.827-0.386 1.705-0.386 2.614 0 4.971 4.029 9 9 9 1.526 0 2.963-0.38 4.222-1.051l12.336 14.392c0.716 0.835 1.938 0.882 2.716 0.104l3.172-3.172c0.778-0.778 0.731-2-0.104-2.716z"></path>
        </symbol>

        <symbol id="icon-hammer" viewBox="0 0 32 32">
            <path d="M31.562 25.905l-9.423-9.423c-0.583-0.583-1.538-0.583-2.121 0l-0.707 0.707-5.75-5.75 9.439-9.439h-10l-4.439 4.439-0.439-0.439h-2.121v2.121l0.439 0.439-6.439 6.439 5 5 6.439-6.439 5.75 5.75-0.707 0.707c-0.583 0.583-0.583 1.538 0 2.121l9.423 9.423c0.583 0.583 1.538 0.583 2.121 0l3.535-3.535c0.583-0.583 0.583-1.538 0-2.121z"></path>
        </symbol>

        <symbol id="icon-bug1" viewBox="0 0 32 32">
            <path d="M32 18v-2h-6.040c-0.183-2.271-0.993-4.345-2.24-6.008h5.061l2.189-8.758-1.94-0.485-1.811 7.242h-5.459c-0.028-0.022-0.056-0.043-0.084-0.064 0.21-0.609 0.324-1.263 0.324-1.944 0-3.305-2.686-5.984-6-5.984s-6 2.679-6 5.984c0 0.68 0.114 1.334 0.324 1.944-0.028 0.021-0.056 0.043-0.084 0.064h-5.459l-1.811-7.242-1.94 0.485 2.189 8.758h5.061c-1.246 1.663-2.056 3.736-2.24 6.008h-6.040v2h6.043c0.119 1.427 0.485 2.775 1.051 3.992h-3.875l-2.189 8.757 1.94 0.485 1.811-7.243h3.511c1.834 2.439 4.606 3.992 7.708 3.992s5.874-1.554 7.708-3.992h3.511l1.811 7.243 1.94-0.485-2.189-8.757h-3.875c0.567-1.217 0.932-2.565 1.051-3.992h6.043z"></path>
        </symbol>

        <symbol id="icon-stats-dots" viewBox="0 0 32 32">
            <path d="M4 28h28v4h-32v-32h4zM9 26c-1.657 0-3-1.343-3-3s1.343-3 3-3c0.088 0 0.176 0.005 0.262 0.012l3.225-5.375c-0.307-0.471-0.487-1.033-0.487-1.638 0-1.657 1.343-3 3-3s3 1.343 3 3c0 0.604-0.179 1.167-0.487 1.638l3.225 5.375c0.086-0.007 0.174-0.012 0.262-0.012 0.067 0 0.133 0.003 0.198 0.007l5.324-9.316c-0.329-0.482-0.522-1.064-0.522-1.691 0-1.657 1.343-3 3-3s3 1.343 3 3c0 1.657-1.343 3-3 3-0.067 0-0.133-0.003-0.198-0.007l-5.324 9.316c0.329 0.481 0.522 1.064 0.522 1.691 0 1.657-1.343 3-3 3s-3-1.343-3-3c0-0.604 0.179-1.167 0.487-1.638l-3.225-5.375c-0.086 0.007-0.174 0.012-0.262 0.012s-0.176-0.005-0.262-0.012l-3.225 5.375c0.307 0.471 0.487 1.033 0.487 1.637 0 1.657-1.343 3-3 3z"></path>
        </symbol>

        <symbol id="icon-truck1" viewBox="0 0 32 32">
            <path d="M32 18l-4-8h-6v-4c0-1.1-0.9-2-2-2h-18c-1.1 0-2 0.9-2 2v16l2 2h2.536c-0.341 0.588-0.536 1.271-0.536 2 0 2.209 1.791 4 4 4s4-1.791 4-4c0-0.729-0.196-1.412-0.536-2h11.073c-0.341 0.588-0.537 1.271-0.537 2 0 2.209 1.791 4 4 4s4-1.791 4-4c0-0.729-0.196-1.412-0.537-2h2.537v-6zM22 18v-6h4.146l3 6h-7.146z"></path>
        </symbol>

        <symbol id="icon-facebook" viewBox="0 0 32 32">
            <path d="M19 6h5v-6h-5c-3.86 0-7 3.14-7 7v3h-4v6h4v16h6v-16h5l1-6h-6v-3c0-0.542 0.458-1 1-1z"></path>
        </symbol>

        <symbol id="icon-facebook2" viewBox="0 0 32 32">
            <path d="M29 0h-26c-1.65 0-3 1.35-3 3v26c0 1.65 1.35 3 3 3h13v-14h-4v-4h4v-2c0-3.306 2.694-6 6-6h4v4h-4c-1.1 0-2 0.9-2 2v2h6l-1 4h-5v14h9c1.65 0 3-1.35 3-3v-26c0-1.65-1.35-3-3-3z"></path>
        </symbol>

        <symbol id="icon-instagram" viewBox="0 0 32 32">
            <path d="M16 2.881c4.275 0 4.781 0.019 6.462 0.094 1.563 0.069 2.406 0.331 2.969 0.55 0.744 0.288 1.281 0.638 1.837 1.194 0.563 0.563 0.906 1.094 1.2 1.838 0.219 0.563 0.481 1.412 0.55 2.969 0.075 1.688 0.094 2.194 0.094 6.463s-0.019 4.781-0.094 6.463c-0.069 1.563-0.331 2.406-0.55 2.969-0.288 0.744-0.637 1.281-1.194 1.837-0.563 0.563-1.094 0.906-1.837 1.2-0.563 0.219-1.413 0.481-2.969 0.55-1.688 0.075-2.194 0.094-6.463 0.094s-4.781-0.019-6.463-0.094c-1.563-0.069-2.406-0.331-2.969-0.55-0.744-0.288-1.281-0.637-1.838-1.194-0.563-0.563-0.906-1.094-1.2-1.837-0.219-0.563-0.481-1.413-0.55-2.969-0.075-1.688-0.094-2.194-0.094-6.463s0.019-4.781 0.094-6.463c0.069-1.563 0.331-2.406 0.55-2.969 0.288-0.744 0.638-1.281 1.194-1.838 0.563-0.563 1.094-0.906 1.838-1.2 0.563-0.219 1.412-0.481 2.969-0.55 1.681-0.075 2.188-0.094 6.463-0.094zM16 0c-4.344 0-4.887 0.019-6.594 0.094-1.7 0.075-2.869 0.35-3.881 0.744-1.056 0.412-1.95 0.956-2.837 1.85-0.894 0.888-1.438 1.781-1.85 2.831-0.394 1.019-0.669 2.181-0.744 3.881-0.075 1.713-0.094 2.256-0.094 6.6s0.019 4.887 0.094 6.594c0.075 1.7 0.35 2.869 0.744 3.881 0.413 1.056 0.956 1.95 1.85 2.837 0.887 0.887 1.781 1.438 2.831 1.844 1.019 0.394 2.181 0.669 3.881 0.744 1.706 0.075 2.25 0.094 6.594 0.094s4.888-0.019 6.594-0.094c1.7-0.075 2.869-0.35 3.881-0.744 1.050-0.406 1.944-0.956 2.831-1.844s1.438-1.781 1.844-2.831c0.394-1.019 0.669-2.181 0.744-3.881 0.075-1.706 0.094-2.25 0.094-6.594s-0.019-4.887-0.094-6.594c-0.075-1.7-0.35-2.869-0.744-3.881-0.394-1.063-0.938-1.956-1.831-2.844-0.887-0.887-1.781-1.438-2.831-1.844-1.019-0.394-2.181-0.669-3.881-0.744-1.712-0.081-2.256-0.1-6.6-0.1v0z"></path><path d="M16 7.781c-4.537 0-8.219 3.681-8.219 8.219s3.681 8.219 8.219 8.219 8.219-3.681 8.219-8.219c0-4.537-3.681-8.219-8.219-8.219zM16 21.331c-2.944 0-5.331-2.387-5.331-5.331s2.387-5.331 5.331-5.331c2.944 0 5.331 2.387 5.331 5.331s-2.387 5.331-5.331 5.331z"></path><path d="M26.462 7.456c0 1.060-0.859 1.919-1.919 1.919s-1.919-0.859-1.919-1.919c0-1.060 0.859-1.919 1.919-1.919s1.919 0.859 1.919 1.919z"></path>
        </symbol>

        <symbol id="icon-whatsapp" viewBox="0 0 32 32">
            <path d="M27.281 4.65c-2.994-3-6.975-4.65-11.219-4.65-8.738 0-15.85 7.112-15.85 15.856 0 2.794 0.731 5.525 2.119 7.925l-2.25 8.219 8.406-2.206c2.319 1.262 4.925 1.931 7.575 1.931h0.006c0 0 0 0 0 0 8.738 0 15.856-7.113 15.856-15.856 0-4.238-1.65-8.219-4.644-11.219zM16.069 29.050v0c-2.369 0-4.688-0.637-6.713-1.837l-0.481-0.288-4.987 1.306 1.331-4.863-0.313-0.5c-1.325-2.094-2.019-4.519-2.019-7.012 0-7.269 5.912-13.181 13.188-13.181 3.519 0 6.831 1.375 9.319 3.862 2.488 2.494 3.856 5.8 3.856 9.325-0.006 7.275-5.919 13.188-13.181 13.188zM23.294 19.175c-0.394-0.2-2.344-1.156-2.706-1.288s-0.625-0.2-0.894 0.2c-0.262 0.394-1.025 1.288-1.256 1.556-0.231 0.262-0.462 0.3-0.856 0.1s-1.675-0.619-3.188-1.969c-1.175-1.050-1.975-2.35-2.206-2.744s-0.025-0.613 0.175-0.806c0.181-0.175 0.394-0.463 0.594-0.694s0.262-0.394 0.394-0.662c0.131-0.262 0.069-0.494-0.031-0.694s-0.894-2.15-1.219-2.944c-0.319-0.775-0.65-0.669-0.894-0.681-0.231-0.012-0.494-0.012-0.756-0.012s-0.694 0.1-1.056 0.494c-0.363 0.394-1.387 1.356-1.387 3.306s1.419 3.831 1.619 4.1c0.2 0.262 2.794 4.269 6.769 5.981 0.944 0.406 1.681 0.65 2.256 0.837 0.95 0.3 1.813 0.256 2.494 0.156 0.762-0.113 2.344-0.956 2.675-1.881s0.331-1.719 0.231-1.881c-0.094-0.175-0.356-0.275-0.756-0.475z"></path>
        </symbol>

        <symbol id="icon-youtube" viewBox="0 0 32 32">
            <path d="M31.681 9.6c0 0-0.313-2.206-1.275-3.175-1.219-1.275-2.581-1.281-3.206-1.356-4.475-0.325-11.194-0.325-11.194-0.325h-0.012c0 0-6.719 0-11.194 0.325-0.625 0.075-1.987 0.081-3.206 1.356-0.963 0.969-1.269 3.175-1.269 3.175s-0.319 2.588-0.319 5.181v2.425c0 2.587 0.319 5.181 0.319 5.181s0.313 2.206 1.269 3.175c1.219 1.275 2.819 1.231 3.531 1.369 2.563 0.244 10.881 0.319 10.881 0.319s6.725-0.012 11.2-0.331c0.625-0.075 1.988-0.081 3.206-1.356 0.962-0.969 1.275-3.175 1.275-3.175s0.319-2.587 0.319-5.181v-2.425c-0.006-2.588-0.325-5.181-0.325-5.181zM12.694 20.15v-8.994l8.644 4.513-8.644 4.481z"></path>
        </symbol>

        <symbol version="1.1" id="wrench-in-circle" xmlns="http://www.w3.org/2000/svg" xmlns:xlink="http://www.w3.org/1999/xlink" x="0px" y="0px" viewBox="0 0 231.233 231.233" style="enable-background:new 0 0 231.233 231.233;" xml:space="preserve">
            <path d="M230.505,102.78c-0.365-3.25-4.156-5.695-7.434-5.695c-10.594,0-19.996-6.218-23.939-15.842c-4.025-9.855-1.428-21.346,6.465-28.587c2.486-2.273,2.789-6.079,0.705-8.721c-5.424-6.886-11.586-13.107-18.316-18.498c-2.633-2.112-6.502-1.818-8.787,0.711c-6.891,7.632-19.27,10.468-28.836,6.477c-9.951-4.187-16.232-14.274-15.615-25.101c0.203-3.403-2.285-6.36-5.676-6.755c-8.637-1-17.35-1.029-26.012-0.068c-3.348,0.37-5.834,3.257-5.723,6.617c0.375,10.721-5.977,20.63-15.832,24.667c-9.451,3.861-21.744,1.046-28.621-6.519c-2.273-2.492-6.074-2.798-8.725-0.731c-6.928,5.437-13.229,11.662-18.703,18.492c-2.133,2.655-1.818,6.503,0.689,8.784c8.049,7.289,10.644,18.879,6.465,28.849c-3.99,9.505-13.859,15.628-25.156,15.628c-3.666-0.118-6.275,2.345-6.68,5.679c-1.016,8.683-1.027,17.535-0.049,26.289c0.365,3.264,4.268,5.688,7.582,5.688c10.07-0.256,19.732,5.974,23.791,15.841c4.039,9.855,1.439,21.341-6.467,28.592c-2.473,2.273-2.789,6.07-0.701,8.709c5.369,6.843,11.537,13.068,18.287,18.505c2.65,2.134,6.504,1.835,8.801-0.697c6.918-7.65,19.295-10.481,28.822-6.482c9.98,4.176,16.258,14.262,15.645,25.092c-0.201,3.403,2.293,6.369,5.672,6.755c4.42,0.517,8.863,0.773,13.32,0.773c4.23,0,8.461-0.231,12.692-0.702c3.352-0.37,5.834-3.26,5.721-6.621c-0.387-10.716,5.979-20.626,15.822-24.655c9.514-3.886,21.752-1.042,28.633,6.512c2.285,2.487,6.063,2.789,8.725,0.73c6.916-5.423,13.205-11.645,18.703-18.493c2.135-2.65,1.832-6.503-0.689-8.788c-8.047-7.284-10.656-18.879-6.477-28.839c3.928-9.377,13.43-15.673,23.65-15.673l1.43,0.038c3.318,0.269,6.367-2.286,6.768-5.671C231.476,120.379,231.487,111.537,230.505,102.78z M115.616,182.27c-36.813,0-66.654-29.841-66.654-66.653s29.842-66.653,66.654-66.653s66.654,29.841,66.654,66.653c0,12.495-3.445,24.182-9.428,34.176l-29.186-29.187c2.113-4.982,3.229-10.383,3.228-15.957c0-10.915-4.251-21.176-11.97-28.893c-7.717-7.717-17.978-11.967-28.891-11.967c-3.642,0-7.267,0.484-10.774,1.439c-1.536,0.419-2.792,1.685-3.201,3.224c-0.418,1.574,0.053,3.187,1.283,4.418c0,0,14.409,14.52,19.23,19.34c0.505,0.505,0.504,1.71,0.433,2.144l-0.045,0.317c-0.486,5.3-1.423,11.662-2.196,14.107c-0.104,0.103-0.202,0.19-0.308,0.296c-0.111,0.111-0.213,0.218-0.32,0.328c-2.477,0.795-8.937,1.743-14.321,2.225l0.001-0.029l-0.242,0.061c-0.043,0.005-0.123,0.011-0.229,0.011c-0.582,0-1.438-0.163-2.216-0.94c-5.018-5.018-18.862-18.763-18.862-18.763c-1.242-1.238-2.516-1.498-3.365-1.498c-1.979,0-3.751,1.43-4.309,3.481c-3.811,14.103,0.229,29.273,10.546,39.591c7.719,7.718,17.981,11.968,28.896,11.968c5.574,0,10.975-1.115,15.956-3.228l29.503,29.503C141.125,178.412,128.825,182.27,115.616,182.27z"/>
        </symbol>

        <symbol version="1.1" id="wrench-and-other" xmlns="http://www.w3.org/2000/svg" xmlns:xlink="http://www.w3.org/1999/xlink" x="0px" y="0px" viewBox="0 0 283.46 283.46" style="enable-background:new 0 0 283.46 283.46;" xml:space="preserve">
            <path d="M200.133,157.32c-2.105-2.105-4.904-3.264-7.881-3.264c-2.977,0-5.776,1.159-7.881,3.264l-9.678,9.678l-14.194-14.194l43.496-43.494c7.016,3.017,14.634,4.613,22.498,4.613c0.001,0,0,0,0.001,0c15.248,0,29.576-5.948,40.341-16.746c14.694-14.74,20.177-36.316,14.308-56.309c-0.341-1.163-1.272-2.06-2.446-2.359c-1.174-0.3-2.42,0.044-3.276,0.903l-35.874,35.983c-2.153-0.873-7.577-3.85-17.615-13.858c-10.038-10.008-13.034-15.423-13.915-17.574l35.872-35.985c0.856-0.859,1.195-2.105,0.893-3.279c-0.303-1.174-1.202-2.102-2.367-2.44C237.244,0.76,231.886,0,226.489,0c-15.249,0-29.574,5.946-40.337,16.744c-16.893,16.946-20.87,41.948-11.981,62.704l-43.515,43.514L86.118,78.424c-0.039-0.076-0.066-0.154-0.109-0.229L65.651,43.294c-0.352-0.603-0.83-1.12-1.403-1.518L29.906,17.948c-1.899-1.318-4.467-1.086-6.1,0.547l-15.3,15.3c-1.634,1.633-1.864,4.202-0.547,6.1l23.828,34.342c0.398,0.573,0.915,1.052,1.518,1.403l34.902,20.358c0.077,0.045,0.158,0.078,0.237,0.118l44.528,44.528l-33.508,33.508c-7.016-3.017-14.633-4.613-22.497-4.613c-15.25,0-29.577,5.947-40.342,16.746C1.931,201.025-3.551,222.602,2.319,242.592c0.341,1.163,1.271,2.06,2.446,2.359c1.174,0.298,2.42-0.044,3.276-0.903l35.874-35.984c2.153,0.874,7.576,3.853,17.613,13.858c10.04,10.009,13.036,15.423,13.916,17.574l-35.872,35.985c-0.856,0.859-1.195,2.105-0.893,3.279c0.303,1.174,1.202,2.102,2.367,2.439c5.17,1.5,10.528,2.261,15.926,2.261c15.247,0,29.573-5.947,40.336-16.745c10.742-10.776,16.645-25.089,16.622-40.305c-0.012-7.841-1.609-15.433-4.617-22.424l33.502-33.501l14.194,14.194l-9.677,9.677c-2.105,2.106-3.265,4.905-3.265,7.882c0,2.978,1.159,5.776,3.264,7.881l68.364,68.363c2.105,2.105,4.903,3.264,7.88,3.264c2.977,0,5.776-1.159,7.882-3.264l37.036-37.037c2.106-2.105,3.266-4.904,3.266-7.882c0-2.977-1.159-5.776-3.264-7.881L200.133,157.32z M224.331,254.164c-2.437,2.438-6.386,2.438-8.821,0l-43.859-43.858c-2.436-2.435-2.436-6.384,0-8.821c2.436-2.436,6.385-2.436,8.821,0.002l43.858,43.857C226.766,247.779,226.767,251.729,224.331,254.164z M244.177,234.318c-2.435,2.436-6.386,2.436-8.821,0l-43.857-43.859c-2.436-2.435-2.436-6.385-0.001-8.82c2.436-2.436,6.386-2.436,8.821,0l43.858,43.859C246.612,227.934,246.612,231.883,244.177,234.318z"/>
        </symbol>

        <symbol version="1.1" id="wheel" xmlns="http://www.w3.org/2000/svg" xmlns:xlink="http://www.w3.org/1999/xlink" x="0px" y="0px" viewBox="0 0 512 512" style="enable-background:new 0 0 512 512;" xml:space="preserve">
            <path d="M256.001,0C114.841,0,0,114.841,0,255.999S114.841,512,256.001,512S512,397.159,512,255.999S397.159,0,256.001,0zM256.001,478.824c-122.866,0-222.824-99.958-222.824-222.824S133.134,33.176,256.001,33.176s222.824,99.958,222.824,222.823S378.866,478.824,256.001,478.824z"/><path d="M256.001,82.941c-95.41,0-173.06,77.638-173.06,173.059c0,95.255,77.464,173.06,173.06,173.06c95.653,0,173.059-77.871,173.059-173.06C429.059,160.8,351.603,82.941,256.001,82.941z M301.341,123.664c17.279,5.937,33.04,15.167,46.529,26.94l-33.04,19.075c-2.73,1.576-6.261,1.576-8.993,0c-2.774-1.601-4.495-4.585-4.495-7.788V123.664z M210.659,123.665v38.228c0,3.203-1.723,6.186-4.497,7.788c-2.73,1.577-6.263,1.577-8.992,0l-33.04-19.075C177.619,138.832,193.379,129.601,210.659,123.665z M116.117,255.999c0-9.2,0.902-18.193,2.607-26.902l33.107,19.114c2.774,1.601,4.495,4.585,4.495,7.788c0,3.203-1.723,6.187-4.497,7.789l-33.107,19.113C117.019,274.192,116.117,265.2,116.117,255.999z M210.659,388.336c-17.279-5.937-33.038-15.167-46.528-26.94l33.04-19.076c2.729-1.575,6.258-1.577,8.992,0.002c2.774,1.6,4.495,4.585,4.495,7.786V388.336z M301.34,388.336v-38.228c0-3.203,1.723-6.186,4.498-7.789c2.73-1.575,6.259-1.575,8.991,0.001l33.04,19.075C334.381,373.169,318.62,382.399,301.34,388.336z M382.67,315.305c-3.3,7.029-7.312,14.046-12.113,20.873c-0.001,0.002-0.002,0.003-0.004,0.006l-39.134-22.594c-13.054-7.54-29.143-7.525-42.169-0.001c-13.006,7.508-21.085,21.5-21.085,36.518v45.24c-3.688,0.323-7.783,0.523-11.866,0.531c-0.199,0-0.398,0-0.598,0c-3.869-0.009-7.981-0.191-11.866-0.531v-45.24c0-15.018-8.08-29.01-21.082-36.517c-13.055-7.54-29.143-7.525-42.17-0.001l-39.136,22.595c-0.001-0.002-0.002-0.003-0.004-0.006c-4.838-6.881-8.796-13.808-12.192-21.046l39.169-22.613c13.005-7.51,21.084-21.503,21.084-36.519c0-15.018-8.08-29.01-21.085-36.518l-39.168-22.613c3.335-7.169,7.485-14.348,12.191-21.044c0.002-0.002,0.003-0.005,0.005-0.008l39.136,22.595c13.033,7.524,29.116,7.535,42.168,0c13.006-7.508,21.085-21.5,21.085-36.518v-45.24c3.646-0.323,7.868-0.523,11.869-0.531c0.197,0,0.394,0,0.591,0c4.039,0.009,8.259,0.212,11.869,0.531v45.24c0,15.018,8.08,29.01,21.085,36.518c13.034,7.524,29.116,7.535,42.168,0l39.136-22.595c4.72,6.743,8.796,13.741,12.197,21.052l-39.187,22.624c-12.998,7.505-21.069,21.503-21.061,36.532c0.008,15.009,8.087,28.995,21.084,36.498l39.164,22.611C382.723,315.19,382.696,315.248,382.67,315.305z M360.174,263.79c-2.771-1.6-4.494-4.584-4.495-7.784c-0.001-3.207,1.712-6.19,4.473-7.783l33.125-19.125c1.703,8.709,2.607,17.702,2.607,26.902s-0.902,18.193-2.607,26.902L360.174,263.79z"/><path d="M256.001,201.866c-29.85,0-54.135,24.284-54.135,54.134c0,29.85,24.284,54.135,54.135,54.135s54.135-24.285,54.135-54.135C310.135,226.15,285.85,201.866,256.001,201.866z M256.001,276.958c-11.556,0-20.959-9.402-20.959-20.959s9.401-20.957,20.959-20.957s20.959,9.401,20.959,20.957S267.557,276.958,256.001,276.958z"/>
        </symbol>

        <symbol version="1.1" id="icon-checklist" xmlns="http://www.w3.org/2000/svg" xmlns:xlink="http://www.w3.org/1999/xlink" x="0px" y="0px" viewBox="0 0 512.001 512.001" style="enable-background:new 0 0 512.001 512.001;" xml:space="preserve">
            <path d="M400.003,152H256.001c-5.523,0-10,4.477-10,10s4.477,10,10,10h144.002c5.523,0,10-4.477,10-10S405.526,152,400.003,152z"/><path d="M365.011,202.931c-1.86-1.86-4.44-2.93-7.07-2.93s-5.21,1.07-7.07,2.93c-1.86,1.86-2.93,4.44-2.93,7.07s1.07,5.21,2.93,7.07s4.44,2.93,7.07,2.93s5.21-1.07,7.07-2.93c1.86-1.86,2.93-4.44,2.93-7.07S366.871,204.791,365.011,202.931z"/><path d="M263.061,45.931c-1.86-1.86-4.44-2.93-7.07-2.93s-5.21,1.07-7.07,2.93c-1.86,1.86-2.93,4.44-2.93,7.07s1.07,5.21,2.93,7.07c1.86,1.86,4.44,2.93,7.07,2.93s5.21-1.07,7.07-2.93c1.86-1.86,2.93-4.44,2.93-7.07S264.921,47.791,263.061,45.931z"/><path d="M315.878,200h-59.877c-5.523,0-10,4.477-10,10s4.477,10,10,10h59.877c5.523,0,10-4.477,10-10S321.401,200,315.878,200z"/><path d="M400.003,260H256.001c-5.523,0-10,4.477-10,10s4.477,10,10,10h144.002c5.523,0,10-4.477,10-10S405.526,260,400.003,260z"/><path d="M365.011,310.931c-1.86-1.86-4.44-2.93-7.07-2.93s-5.21,1.07-7.07,2.93c-1.86,1.86-2.93,4.44-2.93,7.07s1.07,5.21,2.93,7.07s4.44,2.93,7.07,2.93s5.21-1.07,7.07-2.93c1.86-1.86,2.93-4.44,2.93-7.07S366.871,312.791,365.011,310.931z"/><path d="M315.878,308h-59.877c-5.523,0-10,4.477-10,10s4.477,10,10,10h59.877c5.523,0,10-4.477,10-10S321.401,308,315.878,308z"/><path d="M400.003,368H256.001c-5.523,0-10,4.477-10,10s4.477,10,10,10h144.002c5.523,0,10-4.477,10-10S405.526,368,400.003,368z"/><path d="M365.011,418.931c-1.86-1.86-4.44-2.93-7.07-2.93s-5.21,1.07-7.07,2.93c-1.86,1.86-2.93,4.44-2.93,7.07s1.07,5.21,2.93,7.07s4.44,2.93,7.07,2.93s5.21-1.07,7.07-2.93c1.86-1.86,2.93-4.44,2.93-7.07S366.871,420.791,365.011,418.931z"/><path d="M315.878,416h-59.877c-5.523,0-10,4.477-10,10s4.477,10,10,10h59.877c5.523,0,10-4.477,10-10S321.401,416,315.878,416z"/><path d="M419.243,39.001h-76.379C331.823,28.48,316.898,22,300.479,22h-8.76C285.022,8.742,271.263,0,256,0s-29.021,8.742-35.719,22H211.5c-16.419,0-31.343,6.48-42.384,17.001H92.759c-26.885,0-48.758,21.873-48.758,48.758v375.484c0,26.885,21.873,48.758,48.758,48.758h326.483c26.885,0,48.758-21.873,48.758-48.758V87.759C468.001,60.874,446.128,39.001,419.243,39.001z M211.501,42h15.586c4.498,0,8.442-3.003,9.639-7.338C239.111,26.029,247.037,20,256.001,20c8.964,0,16.89,6.029,19.274,14.662c1.197,4.335,5.142,7.338,9.639,7.338h15.565c21.705,0,39.571,16.75,41.354,38.001H170.147C171.93,58.75,189.797,42,211.501,42z M448.001,463.244c0,15.857-12.901,28.758-28.758,28.758H92.759c-15.857,0-28.758-12.901-28.758-28.758V87.759c0-15.857,12.901-28.758,28.758-28.758h62.347c-3.276,7.512-5.105,15.794-5.105,24.5v6.5c0,5.523,4.477,10,10,10H351.98c5.523,0,10-4.477,10-10v-6.5c0-8.705-1.829-16.988-5.105-24.5h62.368c15.857,0,28.758,12.901,28.758,28.758V463.244z"/><path d="M192.41,149.596c-3.905-3.905-10.237-3.905-14.142-0.001l-42.762,42.763l-13.173-13.174c-3.905-3.904-10.237-3.904-14.143,0c-3.905,3.905-3.905,10.237,0,14.143l20.245,20.245c1.953,1.953,4.512,2.929,7.071,2.929c2.559,0,5.119-0.976,7.071-2.929l49.833-49.833C196.315,159.834,196.315,153.502,192.41,149.596z"/><path d="M168.001,368h-48c-5.523,0-10,4.477-10,10v48c0,5.523,4.477,10,10,10h48c5.523,0,10-4.477,10-10v-48C178.001,372.477,173.524,368,168.001,368z M158.001,416h-28v-28h28V416z"/><path d="M168.001,260h-48c-5.523,0-10,4.477-10,10v48c0,5.523,4.477,10,10,10h48c5.523,0,10-4.477,10-10v-48C178.001,264.477,173.524,260,168.001,260z M158.001,308h-28v-28h28V308z"/>
        </symbol>

        <svg id="icon-disk-brake" enable-background="new 0 0 512.004 512.004" height="512" viewBox="0 0 512.004 512.004" width="512" xmlns="http://www.w3.org/2000/svg"><g><g>
            <path d="m442.513 106.978c-44.812-44.812-104.393-69.491-167.767-69.491-17.388 0-34.732 1.922-51.691 5.708l-6.793-25.492c-1.707-6.372-5.953-11.807-11.648-14.91-5.53-3.015-11.882-3.61-17.885-1.681-16.022 5.151-31.645 11.732-46.527 19.595-7.485-4.069-16.346-4.185-23.783.078-43.531 24.388-71.244 52.102-95.63 95.63-4.266 7.438-4.149 16.3-.08 23.786-7.861 14.88-14.442 30.503-19.595 46.526v.001c-1.93 6.003-1.333 12.355 1.681 17.886 3.104 5.695 8.538 9.94 14.922 11.651l25.479 6.789c-3.785 16.96-5.708 34.305-5.708 51.691 0 63.374 24.679 122.955 69.491 167.767 44.813 44.813 104.394 69.492 167.768 69.492s122.955-24.68 167.767-69.492c44.813-44.812 69.492-104.393 69.492-167.767s-24.681-122.954-69.493-167.767zm-253.722 24.431c-.056.032-.112.065-.167.099-11.622 7.015-22.397 15.455-32.029 25.086-9.63 9.631-18.071 20.407-25.086 32.029-.033.056-.066.111-.099.168-8.53 14.775-18.093 20.837-31.6 19.389 9.363-24.498 23.965-47.05 42.643-65.728 18.677-18.678 41.228-33.279 65.728-42.643 1.447 13.506-4.615 23.069-19.39 31.6zm-168.436 63.634c-.384-.704-.45-1.422-.203-2.192 5.406-16.813 12.5-33.148 21.087-48.556 2.176-3.904 1.496-8.778-1.664-11.939-1.944-1.944-2.479-4.188-1.432-6.001.022-.038.043-.076.065-.115 22.741-40.607 47.422-65.29 88.031-88.032.038-.021.076-.043.114-.064 1.815-1.048 4.059-.512 6.002 1.432 3.16 3.162 8.034 3.842 11.939 1.665 15.409-8.588 31.745-15.682 48.556-21.087.77-.248 1.487-.183 2.193.202.91.496 1.603 1.416 1.896 2.512l14.546 54.586c-31.146 10-59.889 27.57-83.176 50.857-23.287 23.288-40.857 52.03-50.856 83.176l-54.575-14.542c-1.107-.299-2.027-.991-2.523-1.902zm254.391 296.961c-119.797 0-217.259-97.462-217.259-217.259 0-15.649 1.701-31.261 5.05-46.537l11.748 3.13c1.297.348 2.624.513 3.956.513 4.463 0 8.959-1.867 12.436-4.959 4.463.965 8.761 1.458 12.883 1.458 18.642 0 33.767-9.857 45.119-29.471 6.171-10.209 13.592-19.677 22.058-28.143 8.467-8.466 17.935-15.888 28.142-22.058 23.953-13.862 33.345-33.354 28.013-58.006 4.013-4.512 5.961-10.743 4.452-16.374l-3.134-11.762c15.276-3.349 30.888-5.05 46.537-5.05 119.797 0 217.259 97.462 217.259 217.259s-97.463 217.259-217.26 217.259z"/><path d="m82.786 163.817c2.74-4.795 1.074-10.903-3.721-13.644s-10.905-1.073-13.645 3.721l-.004.007c-2.74 4.796-1.072 10.9 3.723 13.641 1.564.895 3.268 1.318 4.95 1.318 3.474 0 6.85-1.812 8.697-5.043z"/><path d="m158.87 84.101c1.789 0 3.6-.479 5.234-1.485 4.704-2.895 6.17-9.054 3.275-13.758s-9.055-6.172-13.758-3.275l-.006.004c-4.704 2.895-6.167 9.052-3.272 13.756 1.889 3.069 5.168 4.758 8.527 4.758z"/><path d="m274.746 154.745c-66.168 0-120 53.832-120 120 0 47.683 28.236 90.851 71.934 109.975 1.305.571 2.665.842 4.004.842 3.852-.001 7.523-2.239 9.167-5.993 2.214-5.06-.092-10.957-5.152-13.171-36.42-15.939-59.953-51.915-59.953-91.652 0-55.141 44.86-100 100-100s100 44.859 100 100c0 39.735-23.53 75.71-59.946 91.649-5.06 2.215-7.366 8.111-5.151 13.171s8.109 7.364 13.171 5.151c43.694-19.125 71.927-62.292 71.927-109.972-.001-66.168-53.833-120-120.001-120z"/><path d="m284.746 204.747c0-5.522-4.477-10-10-10h-.007c-5.523 0-9.997 4.478-9.997 10s4.481 10 10.004 10 10-4.478 10-10z"/><path d="m235.556 205.045-.006.003c-5.015 2.314-7.2 8.255-4.886 13.27 1.688 3.657 5.307 5.811 9.087 5.811 1.403 0 2.829-.297 4.186-.923 5.015-2.314 7.204-8.256 4.889-13.271-2.314-5.015-8.258-7.204-13.27-4.89z"/><path d="m219.672 231.426c-4.595-3.063-10.803-1.822-13.868 2.773l-.003.006c-3.064 4.595-1.82 10.801 2.775 13.864 1.704 1.137 3.63 1.68 5.536 1.68 3.233 0 6.406-1.564 8.333-4.456 3.065-4.594 1.823-10.803-2.773-13.867z"/><path d="m214.747 274.746c0-5.522-4.477-10-10-10s-10 4.478-10 10v.007c0 5.522 4.477 9.997 10 9.997s10-4.482 10-10.004z"/><path d="m205.185 314.224c1.752 3.503 5.281 5.527 8.948 5.527 1.503 0 3.03-.341 4.466-1.06 4.94-2.47 6.94-8.479 4.471-13.419-2.47-4.939-8.476-6.942-13.417-4.473-4.94 2.47-6.942 8.477-4.472 13.417z"/><path d="m244.988 326.849c-4.705-2.895-10.863-1.429-13.758 3.275s-1.428 10.863 3.275 13.758l.006.004c1.634 1.006 3.442 1.484 5.229 1.484 3.357 0 6.637-1.692 8.526-4.762 2.895-4.703 1.425-10.864-3.278-13.759z"/><path d="m274.753 354.744c5.523 0 9.997-4.478 9.997-10s-4.481-10-10.004-10-10 4.478-10 10 4.477 10 10 10z"/><path d="m314.986 343.882.006-.004c4.704-2.895 6.167-9.052 3.272-13.756-2.895-4.703-9.056-6.167-13.761-3.273-4.704 2.895-6.17 9.054-3.275 13.758 1.889 3.069 5.168 4.76 8.526 4.76 1.788 0 3.598-.479 5.232-1.485z"/><path d="m340.407 301.104c-4.77-2.781-10.895-1.169-13.678 3.602s-1.171 10.895 3.599 13.677c1.584.925 3.318 1.364 5.029 1.364 3.44 0 6.789-1.777 8.647-4.963l.003-.006c2.783-4.771 1.17-10.892-3.6-13.674z"/><path d="m354.744 274.746v-.008c0-5.522-4.477-9.996-10-9.996s-10 4.481-10 10.004 4.477 10 10 10 10-4.478 10-10z"/><path d="m343.683 234.193c-3.063-4.595-9.269-5.836-13.866-2.771-4.595 3.063-5.835 9.275-2.772 13.87 1.927 2.891 5.098 4.454 8.33 4.454 1.906 0 3.833-.544 5.538-1.681 4.595-3.063 5.837-9.272 2.773-13.867z"/><path d="m309.735 224.127c3.357 0 6.637-1.69 8.526-4.76 2.895-4.704 1.428-10.863-3.275-13.758l-.006-.004c-4.703-2.895-10.86-1.426-13.755 3.277-2.895 4.704-1.425 10.865 3.279 13.76 1.634 1.006 3.443 1.485 5.231 1.485z"/><path d="m234.746 274.746c0 22.056 17.944 40 40 40s40-17.944 40-40c0-22.057-17.944-40.001-40-40.001s-40 17.944-40 40.001zm40-20.001c11.028 0 20 8.973 20 20.001s-8.972 20-20 20-20-8.972-20-20 8.972-20.001 20-20.001z"/><path d="m260.432 130.909c1.575.909 3.294 1.342 4.991 1.342 3.456 0 6.817-1.794 8.669-5.002l18.628-32.265c2.762-4.783 1.123-10.898-3.66-13.66-4.781-2.76-10.898-1.123-13.66 3.66l-18.628 32.265c-2.762 4.783-1.124 10.898 3.66 13.66z"/><path d="m122.239 294.061c3.456 0 6.817-1.794 8.669-5.002 2.762-4.783 1.123-10.898-3.66-13.66l-32.265-18.628c-4.781-2.761-10.898-1.122-13.66 3.66-2.762 4.783-1.123 10.898 3.66 13.66l32.265 18.628c1.575.909 3.295 1.342 4.991 1.342z"/><path d="m147.336 349.06h-37.256c-5.523 0-10 4.478-10 10s4.477 10 10 10h37.256c5.523 0 10-4.478 10-10s-4.477-10-10-10z"/><path d="m201.564 402.808-32.265 18.628c-4.783 2.761-6.422 8.877-3.66 13.66 1.852 3.208 5.213 5.002 8.669 5.002 1.696 0 3.416-.433 4.991-1.342l32.265-18.628c4.783-2.761 6.422-8.877 3.66-13.66s-8.878-6.422-13.66-3.66z"/><path d="m289.06 418.583c-4.781-2.76-10.898-1.122-13.66 3.66l-18.628 32.265c-2.762 4.783-1.123 10.898 3.66 13.66 1.575.909 3.294 1.342 4.991 1.342 3.456 0 6.817-1.794 8.669-5.002l18.628-32.265c2.761-4.783 1.123-10.899-3.66-13.66z"/><path d="m359.06 392.155c-5.523 0-10 4.478-10 10v37.256c0 5.522 4.477 10 10 10s10-4.478 10-10v-37.256c0-5.523-4.477-10-10-10z"/><path d="m420.129 337.928c-2.762-4.782-8.877-6.423-13.66-3.66-4.783 2.762-6.422 8.877-3.66 13.66l18.628 32.265c1.852 3.208 5.213 5.002 8.669 5.002 1.696 0 3.416-.433 4.991-1.342 4.783-2.762 6.422-8.877 3.66-13.66z"/><path d="m464.507 275.399-32.265-18.627c-4.784-2.76-10.899-1.123-13.661 3.66-2.761 4.783-1.122 10.899 3.661 13.66l32.265 18.627c1.575.909 3.294 1.342 4.991 1.342 3.456 0 6.818-1.794 8.67-5.002 2.761-4.783 1.122-10.899-3.661-13.66z"/><path d="m439.411 200.431c5.523 0 10-4.478 10-10s-4.477-10-10-10h-37.256c-5.523 0-10 4.478-10 10s4.477 10 10 10z"/><path d="m342.937 148.024c1.696 0 3.416-.433 4.991-1.342l32.265-18.628c4.783-2.761 6.422-8.877 3.66-13.66s-8.878-6.422-13.66-3.66l-32.265 18.628c-4.783 2.761-6.422 8.877-3.66 13.66 1.852 3.208 5.213 5.002 8.669 5.002z"/><path d="m274.753 394.745c5.523 0 10-4.478 10-10s-4.477-10-10-10h-.007c-5.523 0-9.996 4.478-9.996 10s4.48 10 10.003 10z"/></g></g>
        </svg>

    </defs>
</svg>